<?xml version="1.0" encoding="UTF-8" standalone="no"?>
<!-- Created with Inkscape (http://www.inkscape.org/) -->

<svg
   xmlns:dc="http://purl.org/dc/elements/1.1/"
   xmlns:cc="http://creativecommons.org/ns#"
   xmlns:rdf="http://www.w3.org/1999/02/22-rdf-syntax-ns#"
   xmlns:svg="http://www.w3.org/2000/svg"
   xmlns="http://www.w3.org/2000/svg"
   xmlns:sodipodi="http://sodipodi.sourceforge.net/DTD/sodipodi-0.dtd"
   xmlns:inkscape="http://www.inkscape.org/namespaces/inkscape"
   width="180"
   height="180"
   id="svg3684"
   version="1.1"
   inkscape:version="0.48.3.1 r9886"
   sodipodi:docname="fictional_brand_logo_IXI_variant_d.svg"
   inkscape:export-filename=""
   inkscape:export-xdpi="90"
   inkscape:export-ydpi="90">
  <defs
     id="defs3686">
    <inkscape:perspective
       sodipodi:type="inkscape:persp3d"
       inkscape:vp_x="0 : 526.18109 : 1"
       inkscape:vp_y="0 : 1000 : 0"
       inkscape:vp_z="744.09448 : 526.18109 : 1"
       inkscape:persp3d-origin="372.04724 : 350.78739 : 1"
       id="perspective3692" />
    <inkscape:perspective
       id="perspective3679"
       inkscape:persp3d-origin="0.5 : 0.33333333 : 1"
       inkscape:vp_z="1 : 0.5 : 1"
       inkscape:vp_y="0 : 1000 : 0"
       inkscape:vp_x="0 : 0.5 : 1"
       sodipodi:type="inkscape:persp3d" />
  </defs>
  <sodipodi:namedview
     id="base"
     pagecolor="#ffffff"
     bordercolor="#666666"
     borderopacity="1.0"
     inkscape:pageopacity="0.0"
     inkscape:pageshadow="2"
     inkscape:zoom="1"
     inkscape:cx="15.593432"
     inkscape:cy="103.05166"
     inkscape:document-units="px"
     inkscape:current-layer="layer1"
     showgrid="false"
     inkscape:window-width="1920"
     inkscape:window-height="1181"
     inkscape:window-x="0"
     inkscape:window-y="0"
     inkscape:window-maximized="1"
     fit-margin-top="0"
     fit-margin-left="0"
     fit-margin-right="0"
     fit-margin-bottom="0">
    <inkscape:grid
       type="xygrid"
       id="grid3039"
       empspacing="5"
       visible="true"
       enabled="true"
       snapvisiblegridlinesonly="true"
       originx="-60px"
       originy="-39.99999px" />
  </sodipodi:namedview>
  <metadata
     id="metadata3689">
    <rdf:RDF>
      <cc:Work
         rdf:about="">
        <dc:format>image/svg+xml</dc:format>
        <dc:type
           rdf:resource="http://purl.org/dc/dcmitype/StillImage" />
        <dc:title />
      </cc:Work>
    </rdf:RDF>
  </metadata>
  <g
     inkscape:label="Layer 1"
     inkscape:groupmode="layer"
     id="layer1"
     transform="translate(-329.20312,-374.98729)">
    <path
       transform="matrix(2,0,0,2,119.20312,124.98729)"
       d="m 195,170 c 0,24.85281 -20.14719,45 -45,45 -24.85281,0 -45,-20.14719 -45,-45 0,-24.85281 20.14719,-45 45,-45 24.85281,0 45,20.14719 45,45 z"
       sodipodi:ry="45"
       sodipodi:rx="45"
       sodipodi:cy="170"
       sodipodi:cx="150"
       id="path3861"
       style="fill:#333333;fill-opacity:1;fill-rule:nonzero;stroke:none"
       sodipodi:type="arc" />
    <path
       sodipodi:type="arc"
       style="fill:#ffffff;fill-opacity:1;fill-rule:nonzero;stroke:none"
       id="path3863"
       sodipodi:cx="150"
       sodipodi:cy="170"
       sodipodi:rx="45"
       sodipodi:ry="45"
       d="m 195,170 c 0,24.85281 -20.14719,45 -45,45 -24.85281,0 -45,-20.14719 -45,-45 0,-24.85281 20.14719,-45 45,-45 24.85281,0 45,20.14719 45,45 z"
       transform="matrix(1.8888889,0,0,1.8888889,135.86979,143.87618)" />
    <path
       sodipodi:type="arc"
       style="fill:#333333;fill-opacity:1;fill-rule:nonzero;stroke:none"
       id="path3041"
       sodipodi:cx="150"
       sodipodi:cy="170"
       sodipodi:rx="45"
       sodipodi:ry="45"
       d="m 195,170 c 0,24.85281 -20.14719,45 -45,45 -24.85281,0 -45,-20.14719 -45,-45 0,-24.85281 20.14719,-45 45,-45 24.85281,0 45,20.14719 45,45 z"
       transform="matrix(1.1111104,0,0,1.1111104,252.53657,276.09853)" />
    <path
       inkscape:transform-center-x="-67.5"
       style="fill:#333333;fill-opacity:1;fill-rule:nonzero;stroke:none"
       d="m 474.20312,458.98728 0,12 25,-4 0,-4 z"
       id="path3049"
       inkscape:connector-curvature="0"
       sodipodi:nodetypes="ccccc" />
    <path
       sodipodi:nodetypes="ccccc"
       inkscape:connector-curvature="0"
       id="path3839"
       d="m 470.77613,444.95668 3.10582,11.59111 23.11287,-10.33418 -1.03527,-3.86371 z"
       style="fill:#333333;fill-opacity:1;fill-rule:nonzero;stroke:none"
       inkscape:transform-center-x="-64.682355"
       inkscape:transform-center-y="-15.538435" />
    <path
       inkscape:transform-center-y="15.538435"
       inkscape:transform-center-x="-64.682355"
       style="fill:#333333;fill-opacity:1;fill-rule:nonzero;stroke:none"
       d="m 473.88196,473.42678 -3.10584,11.5911 25.18342,2.60677 1.03529,-3.8637 z"
       id="path3841"
       inkscape:connector-curvature="0"
       sodipodi:nodetypes="ccccc" />
    <path
       sodipodi:nodetypes="ccccc"
       inkscape:connector-curvature="0"
       id="path3843"
       d="m 413.20312,409.98728 12,0 -4,-25 -4,0 z"
       style="fill:#333333;fill-opacity:1;fill-rule:nonzero;stroke:none"
       inkscape:transform-center-y="-67.499999" />
    <path
       inkscape:transform-center-y="-64.682354"
       inkscape:transform-center-x="15.538435"
       style="fill:#333333;fill-opacity:1;fill-rule:nonzero;stroke:none"
       d="m 399.17252,413.41427 11.59111,-3.10582 -10.33418,-23.11287 -3.86371,1.03527 z"
       id="path3845"
       inkscape:connector-curvature="0"
       sodipodi:nodetypes="ccccc" />
    <path
       sodipodi:nodetypes="ccccc"
       inkscape:connector-curvature="0"
       id="path3847"
       d="m 427.64262,410.30844 11.5911,3.10584 2.60677,-25.18342 -3.8637,-1.0353 z"
       style="fill:#333333;fill-opacity:1;fill-rule:nonzero;stroke:none"
       inkscape:transform-center-y="-64.68236"
       inkscape:transform-center-x="-15.53843" />
    <path
       sodipodi:nodetypes="ccccc"
       inkscape:connector-curvature="0"
       id="path3849"
       d="m 364.20313,470.98728 0,-12 -25,4 0,4 z"
       style="fill:#333333;fill-opacity:1;fill-rule:nonzero;stroke:none"
       inkscape:transform-center-x="67.5" />
    <path
       inkscape:transform-center-y="15.538435"
       inkscape:transform-center-x="64.682355"
       style="fill:#333333;fill-opacity:1;fill-rule:nonzero;stroke:none"
       d="m 367.63012,485.01788 -3.10582,-11.59111 -23.11287,10.33418 1.03527,3.86371 z"
       id="path3851"
       inkscape:connector-curvature="0"
       sodipodi:nodetypes="ccccc" />
    <path
       sodipodi:nodetypes="ccccc"
       inkscape:connector-curvature="0"
       id="path3853"
       d="m 364.52429,456.54778 3.10584,-11.5911 -25.18342,-2.60677 -1.03529,3.8637 z"
       style="fill:#333333;fill-opacity:1;fill-rule:nonzero;stroke:none"
       inkscape:transform-center-x="64.682355"
       inkscape:transform-center-y="-15.538435" />
    <path
       inkscape:transform-center-y="67.499999"
       style="fill:#333333;fill-opacity:1;fill-rule:nonzero;stroke:none"
       d="m 425.20313,519.98728 -12,0 4,25 4,0 z"
       id="path3855"
       inkscape:connector-curvature="0"
       sodipodi:nodetypes="ccccc" />
    <path
       sodipodi:nodetypes="ccccc"
       inkscape:connector-curvature="0"
       id="path3857"
       d="m 439.23373,516.56029 -11.59111,3.10582 10.33418,23.11287 3.86371,-1.03527 z"
       style="fill:#333333;fill-opacity:1;fill-rule:nonzero;stroke:none"
       inkscape:transform-center-x="-15.538435"
       inkscape:transform-center-y="64.682354" />
    <path
       inkscape:transform-center-x="15.53843"
       inkscape:transform-center-y="64.68236"
       style="fill:#333333;fill-opacity:1;fill-rule:nonzero;stroke:none"
       d="m 410.76363,519.66612 -11.5911,-3.10584 -2.60677,25.18342 3.8637,1.0353 z"
       id="path3859"
       inkscape:connector-curvature="0"
       sodipodi:nodetypes="ccccc" />
    <path
       sodipodi:nodetypes="ccsccccscsscsccccscsc"
       inkscape:connector-curvature="0"
       id="path3866"
       style="font-size:48px;font-style:normal;font-variant:normal;font-weight:bold;font-stretch:normal;text-align:center;line-height:100%;writing-mode:lr-tb;text-anchor:middle;fill:#ffffff;fill-opacity:1;fill-rule:nonzero;stroke:none;font-family:Century Schoolbook L;-inkscape-font-specification:Century Schoolbook L Bold"
       d="m 387.20313,474.9873 c 0,3.02399 -0.32836,3.632 -0.66436,4.016 -0.432,0.528 -2.11965,0.984 -4.61564,0.984 l -0.72,0 0,3 20,0 0,-3 -0.72,0 c -2.496,0 -4.20036,-0.456 -4.63236,-0.984 -0.336,-0.384 -0.64764,-0.94401 -0.64764,-4.016 l 0,-20 c 0,-3.072 0.31164,-3.632 0.64764,-4.016 0.432,-0.528 2.13636,-0.984 4.63236,-0.984 l 0.72,0 0,-3 -20,0 0,3 0.72,0 c 2.49599,0 4.18364,0.456 4.61564,0.984 0.336,0.384 0.66436,0.992 0.66436,4.016 l 0,20" />
    <path
       d="m 443.20313,474.9873 c 0,3.02399 -0.32836,3.632 -0.66436,4.016 -0.432,0.528 -2.11965,0.984 -4.61564,0.984 l -0.72,0 0,3 20,0 0,-3 -0.72,0 c -2.496,0 -4.20036,-0.456 -4.63236,-0.984 -0.336,-0.384 -0.64764,-0.94401 -0.64764,-4.016 l 0,-20 c 0,-3.072 0.31164,-3.632 0.64764,-4.016 0.432,-0.528 2.13636,-0.984 4.63236,-0.984 l 0.72,0 0,-3 -20,0 0,3 0.72,0 c 2.49599,0 4.18364,0.456 4.61564,0.984 0.336,0.384 0.66436,0.992 0.66436,4.016 l 0,20"
       style="font-size:48px;font-style:normal;font-variant:normal;font-weight:bold;font-stretch:normal;text-align:center;line-height:100%;writing-mode:lr-tb;text-anchor:middle;fill:#ffffff;fill-opacity:1;fill-rule:nonzero;stroke:none;font-family:Century Schoolbook L;-inkscape-font-specification:Century Schoolbook L Bold"
       id="path3872"
       inkscape:connector-curvature="0"
       sodipodi:nodetypes="ccsccccscsscsccccscsc" />
    <path
       d="m 429.47513,453.6833 c 2.16,-2.544 5.232,-3.504 7.728,-3.696 l 0,-3 -10.00001,0 -19.08799,28.152 c -2.784,3.40799 -4.12801,4.752 -6.912,4.848 l 0,3 8.99999,-2e-5 z"
       style="font-size:48px;font-style:normal;font-variant:normal;font-weight:bold;font-stretch:normal;text-align:center;line-height:100%;writing-mode:lr-tb;text-anchor:middle;fill:#ffffff;fill-opacity:1;fill-rule:nonzero;stroke:none;font-family:Century Schoolbook L;-inkscape-font-specification:Century Schoolbook L Bold"
       id="path3897"
       inkscape:connector-curvature="0"
       sodipodi:nodetypes="ccccccccc" />
    <path
       sodipodi:nodetypes="ccccccccc"
       inkscape:connector-curvature="0"
       id="path3006"
       style="font-size:48px;font-style:normal;font-variant:normal;font-weight:bold;font-stretch:normal;text-align:center;line-height:100%;writing-mode:lr-tb;text-anchor:middle;fill:#ffffff;fill-opacity:1;fill-rule:nonzero;stroke:none;font-family:Century Schoolbook L;-inkscape-font-specification:Century Schoolbook L Bold"
       d="m 408.93113,453.6833 c -2.16,-2.544 -5.232,-3.504 -7.728,-3.696 l 0,-3 10.00001,0 19.08799,28.152 c 2.784,3.40799 4.12801,4.752 6.912,4.848 l 0,3 -8.99999,-2e-5 z" />
  </g>
</svg>
